<?xml version="1.0" encoding="utf-8"?>
<!-- Generator: Adobe Illustrator 24.1.1, SVG Export Plug-In . SVG Version: 6.00 Build 0)  -->
<svg version="1.1" id="Layer_1" xmlns="http://www.w3.org/2000/svg" xmlns:xlink="http://www.w3.org/1999/xlink" x="0px" y="0px"
	 viewBox="0 0 512 512" style="enable-background:new 0 0 512 512;" xml:space="preserve">
<style type="text/css">
	.st0{fill:#E2E5E7;}
	.st1{fill:#B0B7BD;}
	.st2{fill:#CAD1D8;}
	.st3{fill:#F15642;}
	.st4{fill:#FFFFFF;}
</style>
<path class="st0" d="M128,0c-17.6,0-32,14.4-32,32v448c0,17.6,14.4,32,32,32h320c17.6,0,32-14.4,32-32V128L352,0H128z"/>
<path class="st1" d="M384,128h96L352,0v96C352,113.6,366.4,128,384,128z"/>
<path class="st2" d="M480,224l-96-96h96V224z"/>
<path class="st3" d="M420,419.9c0,8.8-7.2,16-16,16H52c-8.8,0-16-7.2-16-16v-160c0-8.8,7.2-16,16-16h352c8.8,0,16,7.2,16,16V419.9z"
	/>
<path class="st2" d="M400,432H96v16h304c8.8,0,16-7.2,16-16v-16C416,424.8,408.8,432,400,432z"/>
<g>
	<path class="st4" d="M120,299.5c7.8,0,14.1,2,18.9,5.9c2.7,2.2,4.7,4.8,6.1,7.8c1.4,3,2.1,6.5,2.1,10.4c0,4.5-0.7,8.4-2.1,11.7
		c-1.4,3.3-3.4,6.1-6.2,8.2c-4.7,3.9-11.4,5.9-20,5.9h-16.1v25c0,1.1-0.5,1.6-1.6,1.6H86.9c-1,0-1.5-0.5-1.5-1.6v-65
		c0-3.2,0.8-5.6,2.5-7.3c1.5-1.7,3.8-2.6,6.8-2.6H120z M119.3,315.9l-16.6,0.1v17.1h16.8c6.5,0,9.8-3,9.8-9.1
		C129.4,318.7,126,316,119.3,315.9L119.3,315.9z"/>
	<path class="st4" d="M198.3,299.5c7.8,0,14.1,2,18.9,5.9c2.7,2.2,4.7,4.8,6.1,7.8c1.4,3,2.1,6.5,2.1,10.4c0,4.5-0.7,8.4-2.1,11.7
		c-1.4,3.3-3.4,6.1-6.2,8.2c-4.7,3.9-11.4,5.9-20,5.9h-16.1v25c0,1.1-0.5,1.6-1.6,1.6h-14.2c-1,0-1.5-0.5-1.5-1.6v-65
		c0-3.2,0.8-5.6,2.5-7.3c1.5-1.7,3.8-2.6,6.8-2.6H198.3z M197.7,315.9l-16.6,0.1v17.1h16.8c6.5,0,9.8-3,9.8-9.1
		C207.7,318.7,204.4,316,197.7,315.9L197.7,315.9z"/>
	<path class="st4" d="M299.9,314.9L299.9,314.9c0,1.3-0.6,2-1.9,2h-21v57.5c0,1.1-0.5,1.6-1.5,1.6h-14.3c-1.1,0-1.6-0.5-1.6-1.6
		v-57.5h-21.1c-1.3,0-1.9-0.6-1.9-1.9v-13.8c0-1.1,0.6-1.7,1.9-1.7H298c1.3,0,1.9,0.6,1.9,1.7V314.9L299.9,314.9z"/>
	<path class="st4" d="M375.6,299.2L375.6,299.2c1.6,0.1,1.9,0.8,0.9,2.2l-22.7,35.4l24,37c0.9,1.4,0.4,2.2-1.3,2.2h-16.9
		c-1.1,0-1.8-0.4-2.1-1.1l-13.9-24.3c-0.4,0.8-1.2,2.4-2.5,4.7s-3,5.4-5.3,9.2l-6.4,10.5c-0.4,0.7-1.3,1-2.5,1h-16.5
		c-1.6,0-1.9-0.7-1-2.1l24-37l-22.9-35.4c-0.9-1.4-0.5-2.2,1.1-2.2h17.2c0.4,0,0.8,0.1,1.2,0.4c0.4,0.3,0.7,0.7,0.9,1.1l12.8,22.3
		l12.9-22.4c0.6-1,1.3-1.5,2.2-1.5L375.6,299.2L375.6,299.2z"/>
</g>
</svg>
